<svg width="63" height="55" viewBox="0 0 63 55" fill="none" xmlns="http://www.w3.org/2000/svg">
<rect x="0.5" y="0.5" width="62" height="54" rx="27" stroke="#1C1D20" stroke-opacity="0.2"/>
<path d="M23.1641 33L25.0781 21.3594H26.4375L24.5312 33H23.1641ZM17.8906 29.8828L18.125 28.5234H26.9453L26.7188 29.8828H17.8906ZM19.0781 33L20.9844 21.3594H22.3438L20.4375 33H19.0781ZM18.5781 25.8438L18.8047 24.4766H27.6094L27.3984 25.8438H18.5781ZM31.6488 36.4531C30.6071 36.4531 29.7868 36.2578 29.1878 35.8672C28.5889 35.4766 28.1748 35.013 27.9456 34.4766L29.3988 33.875C29.5029 34.0417 29.6409 34.2188 29.8128 34.4062C29.9899 34.5938 30.2269 34.7526 30.5238 34.8828C30.8206 35.013 31.2034 35.0781 31.6722 35.0781C32.3128 35.0781 32.8441 34.9219 33.2659 34.6094C33.6878 34.3021 33.8988 33.8073 33.8988 33.125V31.4141H33.7816C33.6878 31.5964 33.5446 31.8021 33.3519 32.0312C33.1592 32.2552 32.8961 32.4505 32.5628 32.6172C32.2295 32.7839 31.7946 32.8672 31.2581 32.8672C30.5706 32.8672 29.9508 32.7057 29.3988 32.3828C28.8519 32.0547 28.4144 31.5755 28.0863 30.9453C27.7633 30.3099 27.6019 29.5286 27.6019 28.6016C27.6019 27.6745 27.7607 26.8802 28.0784 26.2188C28.4014 25.5521 28.8389 25.0417 29.3909 24.6875C29.943 24.3333 30.5706 24.1562 31.2738 24.1562C31.8154 24.1562 32.2529 24.2474 32.5863 24.4297C32.9248 24.6068 33.1878 24.8151 33.3753 25.0547C33.5628 25.2943 33.7086 25.5052 33.8128 25.6875H33.9378V24.2656H35.5863V33.1953C35.5863 33.9453 35.4118 34.5599 35.0628 35.0391C34.7191 35.5182 34.2503 35.8724 33.6566 36.1016C33.0628 36.3359 32.3935 36.4531 31.6488 36.4531ZM31.6331 31.4531C32.3675 31.4531 32.93 31.2005 33.3206 30.6953C33.7165 30.1849 33.9144 29.4792 33.9144 28.5781C33.9144 27.9896 33.8284 27.474 33.6566 27.0312C33.4847 26.5833 33.2295 26.2344 32.8909 25.9844C32.5524 25.7292 32.1331 25.6016 31.6331 25.6016C31.1227 25.6016 30.6956 25.7344 30.3519 26C30.0133 26.2604 29.7581 26.6172 29.5863 27.0703C29.4144 27.5182 29.3284 28.0208 29.3284 28.5781C29.3284 29.1458 29.4144 29.6484 29.5863 30.0859C29.7581 30.5182 30.0159 30.8542 30.3597 31.0938C30.7086 31.3333 31.1331 31.4531 31.6331 31.4531ZM36.8913 33V24.2656H38.5788V33H36.8913ZM37.7428 22.9219C37.4459 22.9219 37.1933 22.8229 36.985 22.625C36.7767 22.4271 36.6725 22.1901 36.6725 21.9141C36.6725 21.6328 36.7767 21.3932 36.985 21.1953C37.1933 20.9974 37.4459 20.8984 37.7428 20.8984C38.0345 20.8984 38.2845 20.9974 38.4928 21.1953C38.7064 21.3932 38.8131 21.6328 38.8131 21.9141C38.8131 22.1901 38.7064 22.4271 38.4928 22.625C38.2845 22.8229 38.0345 22.9219 37.7428 22.9219ZM43.9463 24.2656V25.6328H39.1806V24.2656H43.9463ZM40.4541 22.1875H42.1494V30.4375C42.1494 30.8385 42.2327 31.1328 42.3994 31.3203C42.566 31.5026 42.8343 31.5938 43.2041 31.5938C43.2926 31.5938 43.3864 31.5885 43.4853 31.5781C43.5895 31.5677 43.6936 31.5521 43.7978 31.5312L44.1181 32.9375C43.9463 32.9948 43.7588 33.0391 43.5556 33.0703C43.3525 33.1016 43.1494 33.1172 42.9463 33.1172C42.191 33.1172 41.5869 32.9062 41.1338 32.4844C40.6806 32.0573 40.4541 31.4896 40.4541 30.7812V22.1875Z" fill="#1C1D20"/>
</svg>
