<svg width="57" height="55" viewBox="0 0 57 55" fill="none" xmlns="http://www.w3.org/2000/svg">
<rect x="0.5" y="0.5" width="56" height="54" rx="27" stroke="#1C1D20" stroke-opacity="0.2"/>
<path d="M23.1641 33L25.0781 21.3594H26.4375L24.5312 33H23.1641ZM17.8906 29.8828L18.125 28.5234H26.9453L26.7188 29.8828H17.8906ZM19.0781 33L20.9844 21.3594H22.3438L20.4375 33H19.0781ZM18.5781 25.8438L18.8047 24.4766H27.6094L27.3984 25.8438H18.5781ZM28.0081 24.2656H29.6956V33.5703C29.7008 34.1536 29.5967 34.6458 29.3831 35.0469C29.1696 35.4479 28.8571 35.75 28.4456 35.9531C28.0342 36.1615 27.529 36.2656 26.93 36.2656H26.5863V34.8047H26.8597C27.2659 34.8047 27.5576 34.6979 27.7347 34.4844C27.9118 34.2708 28.0029 33.9635 28.0081 33.5625V24.2656ZM28.8441 22.9219C28.5472 22.9219 28.2946 22.8229 28.0863 22.625C27.8779 22.4271 27.7738 22.1901 27.7738 21.9141C27.7738 21.6328 27.8779 21.3932 28.0863 21.1953C28.2946 20.9974 28.5472 20.8984 28.8441 20.8984C29.1357 20.8984 29.3857 20.9974 29.5941 21.1953C29.8076 21.3932 29.9144 21.6328 29.9144 21.9141C29.9144 22.1901 29.8076 22.4271 29.5941 22.625C29.3857 22.8229 29.1357 22.9219 28.8441 22.9219ZM37.5319 26.4062L35.9928 26.6719C35.8939 26.3802 35.709 26.112 35.4381 25.8672C35.1725 25.6224 34.7741 25.5 34.2428 25.5C33.7636 25.5 33.3626 25.6094 33.0397 25.8281C32.722 26.0417 32.5631 26.3151 32.5631 26.6484C32.5631 26.9401 32.6699 27.1771 32.8834 27.3594C33.1022 27.5417 33.4485 27.6875 33.9225 27.7969L35.3209 28.1094C36.1178 28.2917 36.7142 28.5781 37.11 28.9688C37.5058 29.3594 37.7037 29.8594 37.7037 30.4688C37.7037 30.9948 37.5527 31.4635 37.2506 31.875C36.9485 32.2812 36.5293 32.6016 35.9928 32.8359C35.4564 33.0651 34.8366 33.1797 34.1334 33.1797C33.1543 33.1797 32.3574 32.9688 31.7428 32.5469C31.1282 32.125 30.7506 31.5312 30.61 30.7656L32.2428 30.5156C32.347 30.9427 32.5579 31.2656 32.8756 31.4844C33.1985 31.7031 33.6152 31.8125 34.1256 31.8125C34.6777 31.8125 35.1204 31.6953 35.4537 31.4609C35.7923 31.2266 35.9616 30.9427 35.9616 30.6094C35.9616 30.0573 35.5501 29.6849 34.7272 29.4922L33.2506 29.1641C32.4329 28.9766 31.8287 28.6823 31.4381 28.2812C31.0527 27.875 30.86 27.3646 30.86 26.75C30.86 26.2344 31.0032 25.7812 31.2897 25.3906C31.5814 25 31.9798 24.6979 32.485 24.4844C32.9954 24.2656 33.5761 24.1562 34.2272 24.1562C35.1751 24.1562 35.9173 24.362 36.4537 24.7734C36.9954 25.1849 37.3548 25.7292 37.5319 26.4062Z" fill="#1C1D20"/>
</svg>
