<svg width="94" height="55" viewBox="0 0 94 55" fill="none" xmlns="http://www.w3.org/2000/svg">
<rect x="0.5" y="0.5" width="93" height="54" rx="27" stroke="#1C1D20" stroke-opacity="0.2"/>
<path d="M23.1641 33L25.0781 21.3594H26.4375L24.5312 33H23.1641ZM17.8906 29.8828L18.125 28.5234H26.9453L26.7188 29.8828H17.8906ZM19.0781 33L20.9844 21.3594H22.3438L20.4375 33H19.0781ZM18.5781 25.8438L18.8047 24.4766H27.6094L27.3984 25.8438H18.5781ZM29.6956 27.8203V33H28.0081V24.2656H29.6488V25.7031H29.7659C29.9639 25.2292 30.2738 24.8542 30.6956 24.5781C31.1175 24.2969 31.6592 24.1562 32.3206 24.1562C32.9144 24.1562 33.4326 24.2812 33.8753 24.5312C34.3232 24.776 34.6696 25.1432 34.9144 25.6328C35.1644 26.1224 35.2894 26.7292 35.2894 27.4531V33H33.6019V27.6562C33.6019 27.026 33.4352 26.5312 33.1019 26.1719C32.7685 25.8073 32.3154 25.625 31.7425 25.625C31.3519 25.625 31.0003 25.7135 30.6878 25.8906C30.3805 26.0625 30.1383 26.3099 29.9613 26.6328C29.7842 26.9557 29.6956 27.3516 29.6956 27.8203ZM40.2584 33.1797C39.4407 33.1797 38.7246 32.9922 38.11 32.6172C37.5006 32.2422 37.0267 31.7161 36.6881 31.0391C36.3548 30.362 36.1881 29.5755 36.1881 28.6797C36.1881 27.7734 36.3548 26.9818 36.6881 26.3047C37.0267 25.6224 37.5006 25.0938 38.11 24.7188C38.7246 24.3438 39.4407 24.1562 40.2584 24.1562C41.0814 24.1562 41.7975 24.3438 42.4069 24.7188C43.0163 25.0938 43.4902 25.6224 43.8288 26.3047C44.1673 26.9818 44.3366 27.7734 44.3366 28.6797C44.3366 29.5755 44.1673 30.362 43.8288 31.0391C43.4902 31.7161 43.0163 32.2422 42.4069 32.6172C41.7975 32.9922 41.0814 33.1797 40.2584 33.1797ZM40.2584 31.75C40.7949 31.75 41.2376 31.6094 41.5866 31.3281C41.9355 31.0469 42.1933 30.6745 42.36 30.2109C42.5319 29.7422 42.6178 29.2318 42.6178 28.6797C42.6178 28.1172 42.5319 27.6016 42.36 27.1328C42.1933 26.6641 41.9355 26.2891 41.5866 26.0078C41.2376 25.7266 40.7949 25.5859 40.2584 25.5859C39.7272 25.5859 39.2871 25.7266 38.9381 26.0078C38.5944 26.2891 38.3366 26.6641 38.1647 27.1328C37.9928 27.6016 37.9069 28.1172 37.9069 28.6797C37.9069 29.2318 37.9928 29.7422 38.1647 30.2109C38.3366 30.6745 38.5944 31.0469 38.9381 31.3281C39.2871 31.6094 39.7272 31.75 40.2584 31.75ZM48.4931 33.1719C47.7848 33.1719 47.1546 32.9922 46.6025 32.6328C46.0504 32.2682 45.6181 31.75 45.3056 31.0781C44.9931 30.401 44.8369 29.5938 44.8369 28.6562C44.8369 27.7083 44.9957 26.8984 45.3134 26.2266C45.6311 25.5547 46.066 25.0417 46.6181 24.6875C47.1702 24.3333 47.7952 24.1562 48.4931 24.1562C49.04 24.1562 49.4775 24.2474 49.8056 24.4297C50.139 24.6068 50.3968 24.8151 50.5791 25.0547C50.7666 25.2943 50.9098 25.5052 51.0088 25.6875H51.1103V21.3594H52.7978V33H51.1494V31.6406H51.0088C50.9098 31.8229 50.764 32.0339 50.5713 32.2734C50.3785 32.513 50.1155 32.724 49.7822 32.9062C49.4541 33.0833 49.0244 33.1719 48.4931 33.1719ZM48.8603 31.7266C49.3499 31.7266 49.764 31.5964 50.1025 31.3359C50.441 31.0755 50.6963 30.7135 50.8681 30.25C51.0452 29.7865 51.1338 29.25 51.1338 28.6406C51.1338 28.0312 51.0478 27.5 50.8759 27.0469C50.7041 26.5885 50.4489 26.2344 50.1103 25.9844C49.7718 25.7292 49.3551 25.6016 48.8603 25.6016C48.3499 25.6016 47.9254 25.7344 47.5869 26C47.2483 26.2656 46.9931 26.6276 46.8213 27.0859C46.6494 27.5443 46.5634 28.0625 46.5634 28.6406C46.5634 29.224 46.6494 29.75 46.8213 30.2188C46.9931 30.6823 47.2483 31.0495 47.5869 31.3203C47.9306 31.5911 48.3551 31.7266 48.8603 31.7266ZM57.8684 33.1797C57.0143 33.1797 56.2747 32.9948 55.6497 32.625C55.0247 32.2552 54.5429 31.7344 54.2044 31.0625C53.871 30.3854 53.7044 29.5964 53.7044 28.6953C53.7044 27.7995 53.8684 27.0104 54.1966 26.3281C54.5299 25.6458 54.996 25.1146 55.595 24.7344C56.1992 24.349 56.9075 24.1562 57.72 24.1562C58.2148 24.1562 58.694 24.237 59.1575 24.3984C59.621 24.5599 60.0377 24.8151 60.4075 25.1641C60.7773 25.513 61.069 25.9661 61.2825 26.5234C61.5013 27.0807 61.6106 27.7526 61.6106 28.5391V29.1484H54.6653V27.875H60.7356L59.9466 28.2969C59.9466 27.7604 59.8632 27.2865 59.6966 26.875C59.5299 26.4635 59.2799 26.1432 58.9466 25.9141C58.6184 25.6797 58.2096 25.5625 57.72 25.5625C57.2304 25.5625 56.8111 25.6797 56.4622 25.9141C56.1184 26.1484 55.8554 26.4583 55.6731 26.8438C55.4908 27.2292 55.3997 27.651 55.3997 28.1094V28.9766C55.3997 29.5755 55.5039 30.0833 55.7122 30.5C55.9205 30.9167 56.2096 31.2344 56.5794 31.4531C56.9544 31.6719 57.3893 31.7812 57.8841 31.7812C58.207 31.7812 58.4986 31.7344 58.7591 31.6406C59.0247 31.5469 59.2539 31.4062 59.4466 31.2188C59.6393 31.0312 59.7851 30.7995 59.8841 30.5234L61.4934 30.8281C61.3632 31.2969 61.1341 31.7083 60.8059 32.0625C60.4778 32.4167 60.0638 32.6927 59.5638 32.8906C59.069 33.0833 58.5039 33.1797 57.8684 33.1797ZM65.7206 24.2656H67.4081V33.5703C67.4133 34.1536 67.3092 34.6458 67.0956 35.0469C66.8821 35.4479 66.5696 35.75 66.1581 35.9531C65.7467 36.1615 65.2415 36.2656 64.6425 36.2656H64.2988V34.8047H64.5722C64.9784 34.8047 65.2701 34.6979 65.4472 34.4844C65.6243 34.2708 65.7154 33.9635 65.7206 33.5625V24.2656ZM66.5566 22.9219C66.2597 22.9219 66.0071 22.8229 65.7988 22.625C65.5904 22.4271 65.4863 22.1901 65.4863 21.9141C65.4863 21.6328 65.5904 21.3932 65.7988 21.1953C66.0071 20.9974 66.2597 20.8984 66.5566 20.8984C66.8482 20.8984 67.0982 20.9974 67.3066 21.1953C67.5201 21.3932 67.6269 21.6328 67.6269 21.9141C67.6269 22.1901 67.5201 22.4271 67.3066 22.625C67.0982 22.8229 66.8482 22.9219 66.5566 22.9219ZM75.2444 26.4062L73.7053 26.6719C73.6064 26.3802 73.4215 26.112 73.1506 25.8672C72.885 25.6224 72.4866 25.5 71.9553 25.5C71.4761 25.5 71.0751 25.6094 70.7522 25.8281C70.4345 26.0417 70.2756 26.3151 70.2756 26.6484C70.2756 26.9401 70.3824 27.1771 70.5959 27.3594C70.8147 27.5417 71.161 27.6875 71.635 27.7969L73.0334 28.1094C73.8303 28.2917 74.4267 28.5781 74.8225 28.9688C75.2183 29.3594 75.4162 29.8594 75.4162 30.4688C75.4162 30.9948 75.2652 31.4635 74.9631 31.875C74.661 32.2812 74.2418 32.6016 73.7053 32.8359C73.1689 33.0651 72.5491 33.1797 71.8459 33.1797C70.8668 33.1797 70.0699 32.9688 69.4553 32.5469C68.8407 32.125 68.4631 31.5312 68.3225 30.7656L69.9553 30.5156C70.0595 30.9427 70.2704 31.2656 70.5881 31.4844C70.911 31.7031 71.3277 31.8125 71.8381 31.8125C72.3902 31.8125 72.8329 31.6953 73.1662 31.4609C73.5048 31.2266 73.6741 30.9427 73.6741 30.6094C73.6741 30.0573 73.2626 29.6849 72.4397 29.4922L70.9631 29.1641C70.1454 28.9766 69.5412 28.6823 69.1506 28.2812C68.7652 27.875 68.5725 27.3646 68.5725 26.75C68.5725 26.2344 68.7157 25.7812 69.0022 25.3906C69.2939 25 69.6923 24.6979 70.1975 24.4844C70.7079 24.2656 71.2886 24.1562 71.9397 24.1562C72.8876 24.1562 73.6298 24.362 74.1662 24.7734C74.7079 25.1849 75.0673 25.7292 75.2444 26.4062Z" fill="#1C1D20"/>
</svg>
