<svg width="80" height="55" viewBox="0 0 80 55" fill="none" xmlns="http://www.w3.org/2000/svg">
<rect x="0.5" y="0.5" width="79" height="54" rx="27" stroke="#1C1D20" stroke-opacity="0.2"/>
<path d="M23.1641 33L25.0781 21.3594H26.4375L24.5312 33H23.1641ZM17.8906 29.8828L18.125 28.5234H26.9453L26.7188 29.8828H17.8906ZM19.0781 33L20.9844 21.3594H22.3438L20.4375 33H19.0781ZM18.5781 25.8438L18.8047 24.4766H27.6094L27.3984 25.8438H18.5781ZM28.0081 33V24.2656H29.6409V25.6641H29.7347C29.8961 25.1953 30.1774 24.8255 30.5784 24.5547C30.9847 24.2786 31.443 24.1406 31.9534 24.1406C32.0576 24.1406 32.18 24.1458 32.3206 24.1562C32.4665 24.1615 32.5836 24.1693 32.6722 24.1797V25.8047C32.6045 25.7839 32.4821 25.763 32.305 25.7422C32.1331 25.7214 31.9586 25.7109 31.7816 25.7109C31.3805 25.7109 31.0211 25.7969 30.7034 25.9688C30.3909 26.1354 30.1435 26.3672 29.9613 26.6641C29.7842 26.9557 29.6956 27.2943 29.6956 27.6797V33H28.0081ZM36.6178 33.1797C35.7636 33.1797 35.0241 32.9948 34.3991 32.625C33.7741 32.2552 33.2923 31.7344 32.9537 31.0625C32.6204 30.3854 32.4537 29.5964 32.4537 28.6953C32.4537 27.7995 32.6178 27.0104 32.9459 26.3281C33.2793 25.6458 33.7454 25.1146 34.3444 24.7344C34.9485 24.349 35.6569 24.1562 36.4694 24.1562C36.9642 24.1562 37.4433 24.237 37.9069 24.3984C38.3704 24.5599 38.7871 24.8151 39.1569 25.1641C39.5267 25.513 39.8183 25.9661 40.0319 26.5234C40.2506 27.0807 40.36 27.7526 40.36 28.5391V29.1484H33.4147V27.875H39.485L38.6959 28.2969C38.6959 27.7604 38.6126 27.2865 38.4459 26.875C38.2793 26.4635 38.0293 26.1432 37.6959 25.9141C37.3678 25.6797 36.959 25.5625 36.4694 25.5625C35.9798 25.5625 35.5605 25.6797 35.2116 25.9141C34.8678 26.1484 34.6048 26.4583 34.4225 26.8438C34.2402 27.2292 34.1491 27.651 34.1491 28.1094V28.9766C34.1491 29.5755 34.2532 30.0833 34.4616 30.5C34.6699 30.9167 34.959 31.2344 35.3287 31.4531C35.7037 31.6719 36.1386 31.7812 36.6334 31.7812C36.9564 31.7812 37.248 31.7344 37.5084 31.6406C37.7741 31.5469 38.0032 31.4062 38.1959 31.2188C38.3886 31.0312 38.5345 30.7995 38.6334 30.5234L40.2428 30.8281C40.1126 31.2969 39.8834 31.7083 39.5553 32.0625C39.2272 32.4167 38.8131 32.6927 38.3131 32.8906C37.8183 33.0833 37.2532 33.1797 36.6178 33.1797ZM43.7588 33.1875C43.2067 33.1875 42.7067 33.0859 42.2588 32.8828C41.8108 32.6745 41.4567 32.3724 41.1963 31.9766C40.9358 31.5807 40.8056 31.099 40.8056 30.5312C40.8056 30.0365 40.8994 29.6328 41.0869 29.3203C41.2796 29.0026 41.5374 28.75 41.8603 28.5625C42.1832 28.375 42.5426 28.2344 42.9384 28.1406C43.3343 28.0469 43.7405 27.974 44.1572 27.9219C44.6832 27.8646 45.1077 27.8151 45.4306 27.7734C45.7535 27.7318 45.9879 27.6667 46.1338 27.5781C46.2848 27.4844 46.3603 27.3359 46.3603 27.1328V27.0938C46.3603 26.599 46.2197 26.2161 45.9384 25.9453C45.6624 25.6745 45.2509 25.5391 44.7041 25.5391C44.1364 25.5391 43.6858 25.6641 43.3525 25.9141C43.0244 26.1589 42.7978 26.4375 42.6728 26.75L41.0713 26.3828C41.264 25.8516 41.5426 25.4245 41.9072 25.1016C42.277 24.7734 42.6989 24.5339 43.1728 24.3828C43.652 24.2318 44.152 24.1562 44.6728 24.1562C45.0218 24.1562 45.3916 24.1979 45.7822 24.2812C46.1728 24.3594 46.54 24.5078 46.8838 24.7266C47.2327 24.9401 47.5166 25.2474 47.7353 25.6484C47.9541 26.0495 48.0634 26.5677 48.0634 27.2031V33H46.3994V31.8047H46.3369C46.2327 32.0182 46.0686 32.2318 45.8447 32.4453C45.6259 32.6589 45.3447 32.8359 45.0009 32.9766C44.6572 33.1172 44.2431 33.1875 43.7588 33.1875ZM44.1259 31.8281C44.5999 31.8281 45.0035 31.737 45.3369 31.5547C45.6702 31.3672 45.9254 31.1224 46.1025 30.8203C46.2796 30.5182 46.3681 30.1979 46.3681 29.8594V28.7266C46.3056 28.7839 46.1884 28.8385 46.0166 28.8906C45.8447 28.9427 45.6494 28.987 45.4306 29.0234C45.2119 29.0599 44.9983 29.0938 44.79 29.125C44.5817 29.151 44.4072 29.1719 44.2666 29.1875C43.9384 29.2344 43.639 29.3073 43.3681 29.4062C43.0973 29.5 42.8785 29.6406 42.7119 29.8281C42.5504 30.0104 42.4697 30.2526 42.4697 30.5547C42.4697 30.9766 42.6259 31.2943 42.9384 31.5078C43.2509 31.7214 43.6468 31.8281 44.1259 31.8281ZM53.0403 33.1797C52.2018 33.1797 51.4778 32.987 50.8684 32.6016C50.2591 32.2161 49.7903 31.6849 49.4622 31.0078C49.1341 30.3307 48.97 29.5547 48.97 28.6797C48.97 27.7891 49.1367 27.0052 49.47 26.3281C49.8085 25.6458 50.2799 25.1146 50.8841 24.7344C51.4934 24.349 52.207 24.1562 53.0247 24.1562C53.6914 24.1562 54.2825 24.2786 54.7981 24.5234C55.319 24.763 55.7382 25.1042 56.0559 25.5469C56.3789 25.9896 56.569 26.5052 56.6262 27.0938H54.97C54.9127 26.8177 54.8007 26.5651 54.6341 26.3359C54.4726 26.1068 54.2591 25.9245 53.9934 25.7891C53.7278 25.6536 53.4127 25.5859 53.0481 25.5859C52.5742 25.5859 52.1601 25.7109 51.8059 25.9609C51.457 26.2057 51.1835 26.5573 50.9856 27.0156C50.7877 27.474 50.6887 28.0156 50.6887 28.6406C50.6887 29.2708 50.7851 29.8203 50.9778 30.2891C51.1705 30.7578 51.444 31.1198 51.7981 31.375C52.1575 31.625 52.5742 31.75 53.0481 31.75C53.5377 31.75 53.9544 31.6146 54.2981 31.3438C54.6471 31.0729 54.871 30.7031 54.97 30.2344H56.6262C56.569 30.8021 56.3867 31.3073 56.0794 31.75C55.7721 32.1927 55.3606 32.5417 54.845 32.7969C54.3294 33.0521 53.7278 33.1797 53.0403 33.1797ZM61.5719 24.2656V25.6328H56.8063V24.2656H61.5719ZM58.0797 22.1875H59.775V30.4375C59.775 30.8385 59.8583 31.1328 60.025 31.3203C60.1917 31.5026 60.4599 31.5938 60.8297 31.5938C60.9182 31.5938 61.012 31.5885 61.1109 31.5781C61.2151 31.5677 61.3193 31.5521 61.4234 31.5312L61.7438 32.9375C61.5719 32.9948 61.3844 33.0391 61.1813 33.0703C60.9781 33.1016 60.775 33.1172 60.5719 33.1172C59.8167 33.1172 59.2125 32.9062 58.7594 32.4844C58.3063 32.0573 58.0797 31.4896 58.0797 30.7812V22.1875Z" fill="#1C1D20"/>
</svg>
