<svg width="28" height="17" viewBox="0 0 28 17" fill="none" xmlns="http://www.w3.org/2000/svg">
<path d="M6.16406 13L8.07812 1.35938H9.4375L7.53125 13H6.16406ZM0.890625 9.88281L1.125 8.52344H9.94531L9.71875 9.88281H0.890625ZM2.07812 13L3.98438 1.35938H5.34375L3.4375 13H2.07812ZM1.57812 5.84375L1.80469 4.47656H10.6094L10.3984 5.84375H1.57812ZM14.6488 16.4531C13.6071 16.4531 12.7868 16.2578 12.1878 15.8672C11.5889 15.4766 11.1748 15.013 10.9456 14.4766L12.3988 13.875C12.5029 14.0417 12.6409 14.2188 12.8128 14.4062C12.9899 14.5938 13.2269 14.7526 13.5238 14.8828C13.8206 15.013 14.2034 15.0781 14.6722 15.0781C15.3128 15.0781 15.8441 14.9219 16.2659 14.6094C16.6878 14.3021 16.8988 13.8073 16.8988 13.125V11.4141H16.7816C16.6878 11.5964 16.5446 11.8021 16.3519 12.0312C16.1592 12.2552 15.8961 12.4505 15.5628 12.6172C15.2295 12.7839 14.7946 12.8672 14.2581 12.8672C13.5706 12.8672 12.9508 12.7057 12.3988 12.3828C11.8519 12.0547 11.4144 11.5755 11.0863 10.9453C10.7633 10.3099 10.6019 9.52865 10.6019 8.60156C10.6019 7.67448 10.7607 6.88021 11.0784 6.21875C11.4014 5.55208 11.8389 5.04167 12.3909 4.6875C12.943 4.33333 13.5706 4.15625 14.2738 4.15625C14.8154 4.15625 15.2529 4.2474 15.5863 4.42969C15.9248 4.60677 16.1878 4.8151 16.3753 5.05469C16.5628 5.29427 16.7086 5.50521 16.8128 5.6875H16.9378V4.26562H18.5863V13.1953C18.5863 13.9453 18.4118 14.5599 18.0628 15.0391C17.7191 15.5182 17.2503 15.8724 16.6566 16.1016C16.0628 16.3359 15.3935 16.4531 14.6488 16.4531ZM14.6331 11.4531C15.3675 11.4531 15.93 11.2005 16.3206 10.6953C16.7165 10.1849 16.9144 9.47917 16.9144 8.57812C16.9144 7.98958 16.8284 7.47396 16.6566 7.03125C16.4847 6.58333 16.2295 6.23438 15.8909 5.98438C15.5524 5.72917 15.1331 5.60156 14.6331 5.60156C14.1227 5.60156 13.6956 5.73438 13.3519 6C13.0133 6.26042 12.7581 6.61719 12.5863 7.07031C12.4144 7.51823 12.3284 8.02083 12.3284 8.57812C12.3284 9.14583 12.4144 9.64844 12.5863 10.0859C12.7581 10.5182 13.0159 10.8542 13.3597 11.0938C13.7086 11.3333 14.1331 11.4531 14.6331 11.4531ZM19.8913 13V4.26562H21.5788V13H19.8913ZM20.7428 2.92188C20.4459 2.92188 20.1933 2.82292 19.985 2.625C19.7767 2.42708 19.6725 2.1901 19.6725 1.91406C19.6725 1.63281 19.7767 1.39323 19.985 1.19531C20.1933 0.997396 20.4459 0.898438 20.7428 0.898438C21.0345 0.898438 21.2845 0.997396 21.4928 1.19531C21.7064 1.39323 21.8131 1.63281 21.8131 1.91406C21.8131 2.1901 21.7064 2.42708 21.4928 2.625C21.2845 2.82292 21.0345 2.92188 20.7428 2.92188ZM26.9463 4.26562V5.63281H22.1806V4.26562H26.9463ZM23.4541 2.1875H25.1494V10.4375C25.1494 10.8385 25.2327 11.1328 25.3994 11.3203C25.566 11.5026 25.8343 11.5938 26.2041 11.5938C26.2926 11.5938 26.3864 11.5885 26.4853 11.5781C26.5895 11.5677 26.6936 11.5521 26.7978 11.5312L27.1181 12.9375C26.9463 12.9948 26.7588 13.0391 26.5556 13.0703C26.3525 13.1016 26.1494 13.1172 25.9463 13.1172C25.191 13.1172 24.5869 12.9062 24.1338 12.4844C23.6806 12.0573 23.4541 11.4896 23.4541 10.7812V2.1875Z" fill="#1C1D20"/>
</svg>
