<svg width="21" height="17" viewBox="0 0 21 17" fill="none" xmlns="http://www.w3.org/2000/svg">
<path d="M6.16406 13L8.07812 1.35938H9.4375L7.53125 13H6.16406ZM0.890625 9.88281L1.125 8.52344H9.94531L9.71875 9.88281H0.890625ZM2.07812 13L3.98438 1.35938H5.34375L3.4375 13H2.07812ZM1.57812 5.84375L1.80469 4.47656H10.6094L10.3984 5.84375H1.57812ZM11.0081 4.26562H12.6956V13.5703C12.7008 14.1536 12.5967 14.6458 12.3831 15.0469C12.1696 15.4479 11.8571 15.75 11.4456 15.9531C11.0342 16.1615 10.529 16.2656 9.93 16.2656H9.58625V14.8047H9.85969C10.2659 14.8047 10.5576 14.6979 10.7347 14.4844C10.9118 14.2708 11.0029 13.9635 11.0081 13.5625V4.26562ZM11.8441 2.92188C11.5472 2.92188 11.2946 2.82292 11.0863 2.625C10.8779 2.42708 10.7738 2.1901 10.7738 1.91406C10.7738 1.63281 10.8779 1.39323 11.0863 1.19531C11.2946 0.997396 11.5472 0.898438 11.8441 0.898438C12.1357 0.898438 12.3857 0.997396 12.5941 1.19531C12.8076 1.39323 12.9144 1.63281 12.9144 1.91406C12.9144 2.1901 12.8076 2.42708 12.5941 2.625C12.3857 2.82292 12.1357 2.92188 11.8441 2.92188ZM20.5319 6.40625L18.9928 6.67188C18.8939 6.38021 18.709 6.11198 18.4381 5.86719C18.1725 5.6224 17.7741 5.5 17.2428 5.5C16.7636 5.5 16.3626 5.60938 16.0397 5.82812C15.722 6.04167 15.5631 6.3151 15.5631 6.64844C15.5631 6.9401 15.6699 7.17708 15.8834 7.35938C16.1022 7.54167 16.4485 7.6875 16.9225 7.79688L18.3209 8.10938C19.1178 8.29167 19.7142 8.57812 20.11 8.96875C20.5058 9.35938 20.7037 9.85938 20.7037 10.4688C20.7037 10.9948 20.5527 11.4635 20.2506 11.875C19.9485 12.2812 19.5293 12.6016 18.9928 12.8359C18.4564 13.0651 17.8366 13.1797 17.1334 13.1797C16.1543 13.1797 15.3574 12.9688 14.7428 12.5469C14.1282 12.125 13.7506 11.5312 13.61 10.7656L15.2428 10.5156C15.347 10.9427 15.5579 11.2656 15.8756 11.4844C16.1985 11.7031 16.6152 11.8125 17.1256 11.8125C17.6777 11.8125 18.1204 11.6953 18.4537 11.4609C18.7923 11.2266 18.9616 10.9427 18.9616 10.6094C18.9616 10.0573 18.5501 9.6849 17.7272 9.49219L16.2506 9.16406C15.4329 8.97656 14.8287 8.68229 14.4381 8.28125C14.0527 7.875 13.86 7.36458 13.86 6.75C13.86 6.23438 14.0032 5.78125 14.2897 5.39062C14.5814 5 14.9798 4.69792 15.485 4.48438C15.9954 4.26562 16.5761 4.15625 17.2272 4.15625C18.1751 4.15625 18.9173 4.36198 19.4537 4.77344C19.9954 5.1849 20.3548 5.72917 20.5319 6.40625Z" fill="#1C1D20"/>
</svg>
