<svg width="59" height="17" viewBox="0 0 59 17" fill="none" xmlns="http://www.w3.org/2000/svg">
<path d="M6.16406 13L8.07812 1.35938H9.4375L7.53125 13H6.16406ZM0.890625 9.88281L1.125 8.52344H9.94531L9.71875 9.88281H0.890625ZM2.07812 13L3.98438 1.35938H5.34375L3.4375 13H2.07812ZM1.57812 5.84375L1.80469 4.47656H10.6094L10.3984 5.84375H1.57812ZM12.6956 7.82031V13H11.0081V4.26562H12.6488V5.70312H12.7659C12.9639 5.22917 13.2738 4.85417 13.6956 4.57812C14.1175 4.29688 14.6592 4.15625 15.3206 4.15625C15.9144 4.15625 16.4326 4.28125 16.8753 4.53125C17.3232 4.77604 17.6696 5.14323 17.9144 5.63281C18.1644 6.1224 18.2894 6.72917 18.2894 7.45312V13H16.6019V7.65625C16.6019 7.02604 16.4352 6.53125 16.1019 6.17188C15.7685 5.80729 15.3154 5.625 14.7425 5.625C14.3519 5.625 14.0003 5.71354 13.6878 5.89062C13.3805 6.0625 13.1383 6.3099 12.9613 6.63281C12.7842 6.95573 12.6956 7.35156 12.6956 7.82031ZM23.2584 13.1797C22.4407 13.1797 21.7246 12.9922 21.11 12.6172C20.5006 12.2422 20.0267 11.7161 19.6881 11.0391C19.3548 10.362 19.1881 9.57552 19.1881 8.67969C19.1881 7.77344 19.3548 6.98177 19.6881 6.30469C20.0267 5.6224 20.5006 5.09375 21.11 4.71875C21.7246 4.34375 22.4407 4.15625 23.2584 4.15625C24.0814 4.15625 24.7975 4.34375 25.4069 4.71875C26.0163 5.09375 26.4902 5.6224 26.8288 6.30469C27.1673 6.98177 27.3366 7.77344 27.3366 8.67969C27.3366 9.57552 27.1673 10.362 26.8288 11.0391C26.4902 11.7161 26.0163 12.2422 25.4069 12.6172C24.7975 12.9922 24.0814 13.1797 23.2584 13.1797ZM23.2584 11.75C23.7949 11.75 24.2376 11.6094 24.5866 11.3281C24.9355 11.0469 25.1933 10.6745 25.36 10.2109C25.5319 9.74219 25.6178 9.23177 25.6178 8.67969C25.6178 8.11719 25.5319 7.60156 25.36 7.13281C25.1933 6.66406 24.9355 6.28906 24.5866 6.00781C24.2376 5.72656 23.7949 5.58594 23.2584 5.58594C22.7272 5.58594 22.2871 5.72656 21.9381 6.00781C21.5944 6.28906 21.3366 6.66406 21.1647 7.13281C20.9928 7.60156 20.9069 8.11719 20.9069 8.67969C20.9069 9.23177 20.9928 9.74219 21.1647 10.2109C21.3366 10.6745 21.5944 11.0469 21.9381 11.3281C22.2871 11.6094 22.7272 11.75 23.2584 11.75ZM31.4931 13.1719C30.7848 13.1719 30.1546 12.9922 29.6025 12.6328C29.0504 12.2682 28.6181 11.75 28.3056 11.0781C27.9931 10.401 27.8369 9.59375 27.8369 8.65625C27.8369 7.70833 27.9957 6.89844 28.3134 6.22656C28.6311 5.55469 29.066 5.04167 29.6181 4.6875C30.1702 4.33333 30.7952 4.15625 31.4931 4.15625C32.04 4.15625 32.4775 4.2474 32.8056 4.42969C33.139 4.60677 33.3968 4.8151 33.5791 5.05469C33.7666 5.29427 33.9098 5.50521 34.0088 5.6875H34.1103V1.35938H35.7978V13H34.1494V11.6406H34.0088C33.9098 11.8229 33.764 12.0339 33.5713 12.2734C33.3785 12.513 33.1155 12.724 32.7822 12.9062C32.4541 13.0833 32.0244 13.1719 31.4931 13.1719ZM31.8603 11.7266C32.3499 11.7266 32.764 11.5964 33.1025 11.3359C33.441 11.0755 33.6963 10.7135 33.8681 10.25C34.0452 9.78646 34.1338 9.25 34.1338 8.64062C34.1338 8.03125 34.0478 7.5 33.8759 7.04688C33.7041 6.58854 33.4489 6.23438 33.1103 5.98438C32.7718 5.72917 32.3551 5.60156 31.8603 5.60156C31.3499 5.60156 30.9254 5.73438 30.5869 6C30.2483 6.26562 29.9931 6.6276 29.8213 7.08594C29.6494 7.54427 29.5634 8.0625 29.5634 8.64062C29.5634 9.22396 29.6494 9.75 29.8213 10.2188C29.9931 10.6823 30.2483 11.0495 30.5869 11.3203C30.9306 11.5911 31.3551 11.7266 31.8603 11.7266ZM40.8684 13.1797C40.0143 13.1797 39.2747 12.9948 38.6497 12.625C38.0247 12.2552 37.5429 11.7344 37.2044 11.0625C36.871 10.3854 36.7044 9.59635 36.7044 8.69531C36.7044 7.79948 36.8684 7.01042 37.1966 6.32812C37.5299 5.64583 37.996 5.11458 38.595 4.73438C39.1992 4.34896 39.9075 4.15625 40.72 4.15625C41.2148 4.15625 41.694 4.23698 42.1575 4.39844C42.621 4.5599 43.0377 4.8151 43.4075 5.16406C43.7773 5.51302 44.069 5.96615 44.2825 6.52344C44.5013 7.08073 44.6106 7.7526 44.6106 8.53906V9.14844H37.6653V7.875H43.7356L42.9466 8.29688C42.9466 7.76042 42.8632 7.28646 42.6966 6.875C42.5299 6.46354 42.2799 6.14323 41.9466 5.91406C41.6184 5.67969 41.2096 5.5625 40.72 5.5625C40.2304 5.5625 39.8111 5.67969 39.4622 5.91406C39.1184 6.14844 38.8554 6.45833 38.6731 6.84375C38.4908 7.22917 38.3997 7.65104 38.3997 8.10938V8.97656C38.3997 9.57552 38.5039 10.0833 38.7122 10.5C38.9205 10.9167 39.2096 11.2344 39.5794 11.4531C39.9544 11.6719 40.3893 11.7812 40.8841 11.7812C41.207 11.7812 41.4986 11.7344 41.7591 11.6406C42.0247 11.5469 42.2539 11.4062 42.4466 11.2188C42.6393 11.0312 42.7851 10.7995 42.8841 10.5234L44.4934 10.8281C44.3632 11.2969 44.1341 11.7083 43.8059 12.0625C43.4778 12.4167 43.0638 12.6927 42.5638 12.8906C42.069 13.0833 41.5039 13.1797 40.8684 13.1797ZM48.7206 4.26562H50.4081V13.5703C50.4133 14.1536 50.3092 14.6458 50.0956 15.0469C49.8821 15.4479 49.5696 15.75 49.1581 15.9531C48.7467 16.1615 48.2415 16.2656 47.6425 16.2656H47.2988V14.8047H47.5722C47.9784 14.8047 48.2701 14.6979 48.4472 14.4844C48.6243 14.2708 48.7154 13.9635 48.7206 13.5625V4.26562ZM49.5566 2.92188C49.2597 2.92188 49.0071 2.82292 48.7988 2.625C48.5904 2.42708 48.4863 2.1901 48.4863 1.91406C48.4863 1.63281 48.5904 1.39323 48.7988 1.19531C49.0071 0.997396 49.2597 0.898438 49.5566 0.898438C49.8482 0.898438 50.0982 0.997396 50.3066 1.19531C50.5201 1.39323 50.6269 1.63281 50.6269 1.91406C50.6269 2.1901 50.5201 2.42708 50.3066 2.625C50.0982 2.82292 49.8482 2.92188 49.5566 2.92188ZM58.2444 6.40625L56.7053 6.67188C56.6064 6.38021 56.4215 6.11198 56.1506 5.86719C55.885 5.6224 55.4866 5.5 54.9553 5.5C54.4761 5.5 54.0751 5.60938 53.7522 5.82812C53.4345 6.04167 53.2756 6.3151 53.2756 6.64844C53.2756 6.9401 53.3824 7.17708 53.5959 7.35938C53.8147 7.54167 54.161 7.6875 54.635 7.79688L56.0334 8.10938C56.8303 8.29167 57.4267 8.57812 57.8225 8.96875C58.2183 9.35938 58.4162 9.85938 58.4162 10.4688C58.4162 10.9948 58.2652 11.4635 57.9631 11.875C57.661 12.2812 57.2418 12.6016 56.7053 12.8359C56.1689 13.0651 55.5491 13.1797 54.8459 13.1797C53.8668 13.1797 53.0699 12.9688 52.4553 12.5469C51.8407 12.125 51.4631 11.5312 51.3225 10.7656L52.9553 10.5156C53.0595 10.9427 53.2704 11.2656 53.5881 11.4844C53.911 11.7031 54.3277 11.8125 54.8381 11.8125C55.3902 11.8125 55.8329 11.6953 56.1662 11.4609C56.5048 11.2266 56.6741 10.9427 56.6741 10.6094C56.6741 10.0573 56.2626 9.6849 55.4397 9.49219L53.9631 9.16406C53.1454 8.97656 52.5412 8.68229 52.1506 8.28125C51.7652 7.875 51.5725 7.36458 51.5725 6.75C51.5725 6.23438 51.7157 5.78125 52.0022 5.39062C52.2939 5 52.6923 4.69792 53.1975 4.48438C53.7079 4.26562 54.2886 4.15625 54.9397 4.15625C55.8876 4.15625 56.6298 4.36198 57.1662 4.77344C57.7079 5.1849 58.0673 5.72917 58.2444 6.40625Z" fill="#1C1D20"/>
</svg>
