<svg width="80" height="45" viewBox="0 0 80 45" fill="none" xmlns="http://www.w3.org/2000/svg">
<rect x="0.5" y="0.5" width="79" height="44" rx="22" stroke="#1C1D20" stroke-opacity="0.2"/>
<path d="M23.1641 28L25.0781 16.3594H26.4375L24.5312 28H23.1641ZM17.8906 24.8828L18.125 23.5234H26.9453L26.7188 24.8828H17.8906ZM19.0781 28L20.9844 16.3594H22.3438L20.4375 28H19.0781ZM18.5781 20.8438L18.8047 19.4766H27.6094L27.3984 20.8438H18.5781ZM28.0081 28V19.2656H29.6409V20.6641H29.7347C29.8961 20.1953 30.1774 19.8255 30.5784 19.5547C30.9847 19.2786 31.443 19.1406 31.9534 19.1406C32.0576 19.1406 32.18 19.1458 32.3206 19.1562C32.4665 19.1615 32.5836 19.1693 32.6722 19.1797V20.8047C32.6045 20.7839 32.4821 20.763 32.305 20.7422C32.1331 20.7214 31.9586 20.7109 31.7816 20.7109C31.3805 20.7109 31.0211 20.7969 30.7034 20.9688C30.3909 21.1354 30.1435 21.3672 29.9613 21.6641C29.7842 21.9557 29.6956 22.2943 29.6956 22.6797V28H28.0081ZM36.6178 28.1797C35.7636 28.1797 35.0241 27.9948 34.3991 27.625C33.7741 27.2552 33.2923 26.7344 32.9537 26.0625C32.6204 25.3854 32.4537 24.5964 32.4537 23.6953C32.4537 22.7995 32.6178 22.0104 32.9459 21.3281C33.2793 20.6458 33.7454 20.1146 34.3444 19.7344C34.9485 19.349 35.6569 19.1562 36.4694 19.1562C36.9642 19.1562 37.4433 19.237 37.9069 19.3984C38.3704 19.5599 38.7871 19.8151 39.1569 20.1641C39.5267 20.513 39.8183 20.9661 40.0319 21.5234C40.2506 22.0807 40.36 22.7526 40.36 23.5391V24.1484H33.4147V22.875H39.485L38.6959 23.2969C38.6959 22.7604 38.6126 22.2865 38.4459 21.875C38.2793 21.4635 38.0293 21.1432 37.6959 20.9141C37.3678 20.6797 36.959 20.5625 36.4694 20.5625C35.9798 20.5625 35.5605 20.6797 35.2116 20.9141C34.8678 21.1484 34.6048 21.4583 34.4225 21.8438C34.2402 22.2292 34.1491 22.651 34.1491 23.1094V23.9766C34.1491 24.5755 34.2532 25.0833 34.4616 25.5C34.6699 25.9167 34.959 26.2344 35.3287 26.4531C35.7037 26.6719 36.1386 26.7812 36.6334 26.7812C36.9564 26.7812 37.248 26.7344 37.5084 26.6406C37.7741 26.5469 38.0032 26.4062 38.1959 26.2188C38.3886 26.0312 38.5345 25.7995 38.6334 25.5234L40.2428 25.8281C40.1126 26.2969 39.8834 26.7083 39.5553 27.0625C39.2272 27.4167 38.8131 27.6927 38.3131 27.8906C37.8183 28.0833 37.2532 28.1797 36.6178 28.1797ZM43.7588 28.1875C43.2067 28.1875 42.7067 28.0859 42.2588 27.8828C41.8108 27.6745 41.4567 27.3724 41.1963 26.9766C40.9358 26.5807 40.8056 26.099 40.8056 25.5312C40.8056 25.0365 40.8994 24.6328 41.0869 24.3203C41.2796 24.0026 41.5374 23.75 41.8603 23.5625C42.1832 23.375 42.5426 23.2344 42.9384 23.1406C43.3343 23.0469 43.7405 22.974 44.1572 22.9219C44.6832 22.8646 45.1077 22.8151 45.4306 22.7734C45.7535 22.7318 45.9879 22.6667 46.1338 22.5781C46.2848 22.4844 46.3603 22.3359 46.3603 22.1328V22.0938C46.3603 21.599 46.2197 21.2161 45.9384 20.9453C45.6624 20.6745 45.2509 20.5391 44.7041 20.5391C44.1364 20.5391 43.6858 20.6641 43.3525 20.9141C43.0244 21.1589 42.7978 21.4375 42.6728 21.75L41.0713 21.3828C41.264 20.8516 41.5426 20.4245 41.9072 20.1016C42.277 19.7734 42.6989 19.5339 43.1728 19.3828C43.652 19.2318 44.152 19.1562 44.6728 19.1562C45.0218 19.1562 45.3916 19.1979 45.7822 19.2812C46.1728 19.3594 46.54 19.5078 46.8838 19.7266C47.2327 19.9401 47.5166 20.2474 47.7353 20.6484C47.9541 21.0495 48.0634 21.5677 48.0634 22.2031V28H46.3994V26.8047H46.3369C46.2327 27.0182 46.0686 27.2318 45.8447 27.4453C45.6259 27.6589 45.3447 27.8359 45.0009 27.9766C44.6572 28.1172 44.2431 28.1875 43.7588 28.1875ZM44.1259 26.8281C44.5999 26.8281 45.0035 26.737 45.3369 26.5547C45.6702 26.3672 45.9254 26.1224 46.1025 25.8203C46.2796 25.5182 46.3681 25.1979 46.3681 24.8594V23.7266C46.3056 23.7839 46.1884 23.8385 46.0166 23.8906C45.8447 23.9427 45.6494 23.987 45.4306 24.0234C45.2119 24.0599 44.9983 24.0938 44.79 24.125C44.5817 24.151 44.4072 24.1719 44.2666 24.1875C43.9384 24.2344 43.639 24.3073 43.3681 24.4062C43.0973 24.5 42.8785 24.6406 42.7119 24.8281C42.5504 25.0104 42.4697 25.2526 42.4697 25.5547C42.4697 25.9766 42.6259 26.2943 42.9384 26.5078C43.2509 26.7214 43.6468 26.8281 44.1259 26.8281ZM53.0403 28.1797C52.2018 28.1797 51.4778 27.987 50.8684 27.6016C50.2591 27.2161 49.7903 26.6849 49.4622 26.0078C49.1341 25.3307 48.97 24.5547 48.97 23.6797C48.97 22.7891 49.1367 22.0052 49.47 21.3281C49.8085 20.6458 50.2799 20.1146 50.8841 19.7344C51.4934 19.349 52.207 19.1562 53.0247 19.1562C53.6914 19.1562 54.2825 19.2786 54.7981 19.5234C55.319 19.763 55.7382 20.1042 56.0559 20.5469C56.3789 20.9896 56.569 21.5052 56.6262 22.0938H54.97C54.9127 21.8177 54.8007 21.5651 54.6341 21.3359C54.4726 21.1068 54.2591 20.9245 53.9934 20.7891C53.7278 20.6536 53.4127 20.5859 53.0481 20.5859C52.5742 20.5859 52.1601 20.7109 51.8059 20.9609C51.457 21.2057 51.1835 21.5573 50.9856 22.0156C50.7877 22.474 50.6887 23.0156 50.6887 23.6406C50.6887 24.2708 50.7851 24.8203 50.9778 25.2891C51.1705 25.7578 51.444 26.1198 51.7981 26.375C52.1575 26.625 52.5742 26.75 53.0481 26.75C53.5377 26.75 53.9544 26.6146 54.2981 26.3438C54.6471 26.0729 54.871 25.7031 54.97 25.2344H56.6262C56.569 25.8021 56.3867 26.3073 56.0794 26.75C55.7721 27.1927 55.3606 27.5417 54.845 27.7969C54.3294 28.0521 53.7278 28.1797 53.0403 28.1797ZM61.5719 19.2656V20.6328H56.8063V19.2656H61.5719ZM58.0797 17.1875H59.775V25.4375C59.775 25.8385 59.8583 26.1328 60.025 26.3203C60.1917 26.5026 60.4599 26.5938 60.8297 26.5938C60.9182 26.5938 61.012 26.5885 61.1109 26.5781C61.2151 26.5677 61.3193 26.5521 61.4234 26.5312L61.7438 27.9375C61.5719 27.9948 61.3844 28.0391 61.1813 28.0703C60.9781 28.1016 60.775 28.1172 60.5719 28.1172C59.8167 28.1172 59.2125 27.9062 58.7594 27.4844C58.3063 27.0573 58.0797 26.4896 58.0797 25.7812V17.1875Z" fill="#1C1D20"/>
</svg>
