<svg aria-hidden="true" style="position: absolute; width: 0; height: 0; overflow: hidden;" version="1.1" xmlns="http://www.w3.org/2000/svg" xmlns:xlink="http://www.w3.org/1999/xlink">
<defs>
<symbol id="icon-ic-git" viewBox="0 0 37 32">
<path fill="none" stroke="#1c1d20" style="stroke: var(--color1, #1c1d20)" stroke-linejoin="miter" stroke-linecap="butt" stroke-miterlimit="4" stroke-width="0.5818" d="M16 0.291h4.655c8.676 0 15.709 7.033 15.709 15.709s-7.033 15.709-15.709 15.709h-4.655c-8.676 0-15.709-7.033-15.709-15.709s7.033-15.709 15.709-15.709z"></path>
<path d="M13.477 19.2l1.114-6.773h0.791l-1.109 6.773h-0.795zM10.409 17.386l0.136-0.791h5.132l-0.132 0.791h-5.136zM11.1 19.2l1.109-6.773h0.791l-1.109 6.773h-0.791zM10.809 15.036l0.132-0.795h5.123l-0.123 0.795h-5.132zM18.414 21.209c-0.606 0-1.083-0.114-1.432-0.341s-0.589-0.497-0.723-0.809l0.846-0.35c0.061 0.097 0.141 0.2 0.241 0.309 0.103 0.109 0.241 0.202 0.414 0.277s0.395 0.114 0.668 0.114c0.373 0 0.682-0.091 0.927-0.273 0.245-0.179 0.368-0.467 0.368-0.864v-0.995h-0.068c-0.055 0.106-0.138 0.226-0.25 0.359-0.112 0.13-0.265 0.244-0.459 0.341s-0.447 0.145-0.759 0.145c-0.4 0-0.761-0.094-1.082-0.282-0.318-0.191-0.573-0.47-0.764-0.836-0.188-0.37-0.282-0.824-0.282-1.364s0.092-1.002 0.277-1.386c0.188-0.388 0.442-0.685 0.764-0.891s0.686-0.309 1.096-0.309c0.315 0 0.57 0.053 0.764 0.159 0.197 0.103 0.35 0.224 0.459 0.364s0.194 0.262 0.255 0.368h0.073v-0.827h0.959v5.195c0 0.436-0.102 0.794-0.305 1.073-0.2 0.279-0.473 0.485-0.818 0.618-0.345 0.136-0.735 0.204-1.168 0.204zM18.405 18.3c0.427 0 0.755-0.147 0.982-0.441 0.23-0.297 0.345-0.708 0.345-1.232 0-0.342-0.050-0.642-0.15-0.9-0.1-0.261-0.248-0.464-0.445-0.609-0.197-0.148-0.441-0.223-0.732-0.223-0.297 0-0.545 0.077-0.745 0.232-0.197 0.152-0.345 0.359-0.445 0.623-0.1 0.261-0.15 0.553-0.15 0.877 0 0.33 0.050 0.623 0.15 0.877 0.1 0.252 0.25 0.447 0.45 0.586 0.203 0.139 0.45 0.209 0.741 0.209zM21.464 19.2v-5.082h0.982v5.082h-0.982zM21.959 13.336c-0.173 0-0.32-0.058-0.441-0.173s-0.182-0.253-0.182-0.414c0-0.164 0.061-0.303 0.182-0.418s0.268-0.173 0.441-0.173c0.17 0 0.315 0.058 0.436 0.173 0.124 0.115 0.186 0.255 0.186 0.418 0 0.161-0.062 0.298-0.186 0.414-0.121 0.115-0.267 0.173-0.436 0.173zM25.569 14.118v0.795h-2.773v-0.795h2.773zM23.537 12.909h0.986v4.8c0 0.233 0.048 0.405 0.145 0.514 0.097 0.106 0.253 0.159 0.468 0.159 0.052 0 0.106-0.003 0.164-0.009 0.061-0.006 0.121-0.015 0.182-0.027l0.186 0.818c-0.1 0.033-0.209 0.059-0.327 0.077s-0.236 0.027-0.355 0.027c-0.439 0-0.791-0.123-1.055-0.368-0.264-0.248-0.395-0.579-0.395-0.991v-5z"></path>
</symbol>
<symbol id="icon-ic-js" viewBox="0 0 33 32">
<path fill="none" stroke="#1c1d20" style="stroke: var(--color1, #1c1d20)" stroke-linejoin="miter" stroke-linecap="butt" stroke-miterlimit="4" stroke-width="0.5818" d="M16 0.291h1.164c8.676 0 15.709 7.033 15.709 15.709s-7.033 15.709-15.709 15.709h-1.164c-8.676 0-15.709-7.033-15.709-15.709s7.033-15.709 15.709-15.709z"></path>
<path d="M13.477 19.2l1.114-6.773h0.791l-1.109 6.773h-0.795zM10.409 17.386l0.136-0.791h5.132l-0.132 0.791h-5.136zM11.1 19.2l1.109-6.773h0.791l-1.109 6.773h-0.791zM10.809 15.036l0.132-0.795h5.123l-0.123 0.795h-5.132zM16.296 14.118h0.982v5.414c0.003 0.339-0.058 0.626-0.182 0.859s-0.306 0.409-0.545 0.527c-0.239 0.121-0.533 0.182-0.882 0.182h-0.2v-0.85h0.159c0.236 0 0.406-0.062 0.509-0.186s0.156-0.303 0.159-0.536v-5.409zM16.782 13.336c-0.173 0-0.32-0.058-0.441-0.173s-0.182-0.253-0.182-0.414c0-0.164 0.061-0.303 0.182-0.418s0.268-0.173 0.441-0.173c0.17 0 0.315 0.058 0.436 0.173 0.124 0.115 0.186 0.255 0.186 0.418 0 0.161-0.062 0.298-0.186 0.414-0.121 0.115-0.267 0.173-0.436 0.173zM21.837 15.364l-0.895 0.155c-0.058-0.17-0.165-0.326-0.323-0.468-0.155-0.142-0.386-0.214-0.695-0.214-0.279 0-0.512 0.064-0.7 0.191-0.185 0.124-0.277 0.283-0.277 0.477 0 0.17 0.062 0.308 0.186 0.414 0.127 0.106 0.329 0.191 0.605 0.255l0.814 0.182c0.464 0.106 0.811 0.273 1.041 0.5s0.345 0.518 0.345 0.873c0 0.306-0.088 0.579-0.264 0.818-0.176 0.236-0.42 0.423-0.732 0.559-0.312 0.133-0.673 0.2-1.082 0.2-0.57 0-1.033-0.123-1.391-0.368s-0.577-0.591-0.659-1.036l0.95-0.145c0.061 0.248 0.183 0.436 0.368 0.564 0.188 0.127 0.43 0.191 0.727 0.191 0.321 0 0.579-0.068 0.773-0.205 0.197-0.136 0.296-0.302 0.296-0.495 0-0.321-0.239-0.538-0.718-0.65l-0.859-0.191c-0.476-0.109-0.827-0.28-1.055-0.514-0.224-0.236-0.336-0.533-0.336-0.891 0-0.3 0.083-0.564 0.25-0.791 0.17-0.227 0.401-0.403 0.695-0.527 0.297-0.127 0.635-0.191 1.014-0.191 0.552 0 0.983 0.12 1.295 0.359 0.315 0.239 0.524 0.556 0.627 0.95z"></path>
</symbol>
<symbol id="icon-ic-nodejs" viewBox="0 0 55 32">
<path fill="none" stroke="#1c1d20" style="stroke: var(--color1, #1c1d20)" stroke-linejoin="miter" stroke-linecap="butt" stroke-miterlimit="4" stroke-width="0.5818" d="M16 0.291h22.691c8.676 0 15.709 7.033 15.709 15.709s-7.033 15.709-15.709 15.709h-22.691c-8.676 0-15.709-7.033-15.709-15.709s7.033-15.709 15.709-15.709z"></path>
<path d="M13.477 19.2l1.114-6.773h0.791l-1.109 6.773h-0.795zM10.409 17.386l0.136-0.791h5.132l-0.132 0.791h-5.136zM11.1 19.2l1.109-6.773h0.791l-1.109 6.773h-0.791zM10.809 15.036l0.132-0.795h5.123l-0.123 0.795h-5.132zM17.277 16.186v3.014h-0.982v-5.082h0.955v0.836h0.068c0.115-0.276 0.296-0.494 0.541-0.655 0.245-0.164 0.561-0.245 0.945-0.245 0.345 0 0.647 0.073 0.905 0.218 0.261 0.142 0.462 0.356 0.605 0.641 0.145 0.285 0.218 0.638 0.218 1.059v3.227h-0.982v-3.109c0-0.367-0.097-0.655-0.291-0.864-0.194-0.212-0.458-0.318-0.791-0.318-0.227 0-0.432 0.052-0.614 0.155-0.179 0.1-0.32 0.244-0.423 0.432s-0.155 0.418-0.155 0.691zM23.423 19.305c-0.476 0-0.892-0.109-1.25-0.327-0.355-0.218-0.63-0.524-0.827-0.918-0.194-0.394-0.291-0.852-0.291-1.373 0-0.527 0.097-0.988 0.291-1.382 0.197-0.397 0.473-0.705 0.827-0.923 0.358-0.218 0.774-0.327 1.25-0.327 0.479 0 0.895 0.109 1.25 0.327s0.63 0.526 0.827 0.923c0.197 0.394 0.295 0.855 0.295 1.382 0 0.521-0.099 0.979-0.295 1.373s-0.473 0.7-0.827 0.918-0.771 0.327-1.25 0.327zM23.423 18.473c0.312 0 0.57-0.082 0.773-0.245s0.353-0.38 0.45-0.65c0.1-0.273 0.15-0.57 0.15-0.891 0-0.327-0.050-0.627-0.15-0.9-0.097-0.273-0.247-0.491-0.45-0.655s-0.461-0.245-0.773-0.245c-0.309 0-0.565 0.082-0.768 0.245-0.2 0.164-0.35 0.382-0.45 0.655s-0.15 0.573-0.15 0.9c0 0.321 0.050 0.618 0.15 0.891 0.1 0.27 0.25 0.486 0.45 0.65 0.203 0.164 0.459 0.245 0.768 0.245zM28.214 19.3c-0.412 0-0.779-0.105-1.1-0.314-0.321-0.212-0.573-0.514-0.755-0.905-0.182-0.394-0.273-0.864-0.273-1.409 0-0.552 0.092-1.023 0.277-1.414s0.438-0.689 0.759-0.895 0.685-0.309 1.091-0.309c0.318 0 0.573 0.053 0.764 0.159 0.194 0.103 0.344 0.224 0.45 0.364 0.109 0.139 0.192 0.262 0.25 0.368h0.059v-2.518h0.982v6.773h-0.959v-0.791h-0.082c-0.058 0.106-0.142 0.229-0.255 0.368s-0.265 0.262-0.459 0.368c-0.191 0.103-0.441 0.155-0.75 0.155zM28.428 18.459c0.285 0 0.526-0.076 0.723-0.227s0.345-0.362 0.445-0.632c0.103-0.27 0.155-0.582 0.155-0.936s-0.050-0.664-0.15-0.927c-0.1-0.267-0.248-0.473-0.445-0.618-0.197-0.148-0.439-0.223-0.727-0.223-0.297 0-0.544 0.077-0.741 0.232s-0.345 0.365-0.445 0.632c-0.1 0.267-0.15 0.568-0.15 0.905 0 0.339 0.050 0.645 0.15 0.918 0.1 0.27 0.248 0.483 0.445 0.641 0.2 0.158 0.447 0.236 0.741 0.236zM33.669 19.305c-0.497 0-0.927-0.108-1.291-0.323s-0.644-0.518-0.841-0.909c-0.194-0.394-0.291-0.853-0.291-1.377 0-0.521 0.095-0.98 0.286-1.377 0.194-0.397 0.465-0.706 0.814-0.927 0.352-0.224 0.764-0.336 1.236-0.336 0.288 0 0.567 0.047 0.836 0.141s0.512 0.242 0.727 0.445c0.215 0.203 0.385 0.467 0.509 0.791 0.127 0.324 0.191 0.715 0.191 1.173v0.355h-4.041v-0.741h3.532l-0.459 0.245c0-0.312-0.049-0.588-0.145-0.827s-0.242-0.426-0.436-0.559c-0.191-0.136-0.429-0.205-0.714-0.205s-0.529 0.068-0.732 0.205c-0.2 0.136-0.353 0.317-0.459 0.541s-0.159 0.47-0.159 0.736v0.505c0 0.348 0.061 0.644 0.182 0.886s0.289 0.427 0.505 0.555c0.218 0.127 0.471 0.191 0.759 0.191 0.188 0 0.358-0.027 0.509-0.082 0.155-0.055 0.288-0.136 0.4-0.245s0.197-0.244 0.255-0.405l0.936 0.177c-0.076 0.273-0.209 0.512-0.4 0.718s-0.432 0.367-0.723 0.482c-0.288 0.112-0.617 0.168-0.986 0.168zM38.237 14.118h0.982v5.414c0.003 0.339-0.058 0.626-0.182 0.859s-0.306 0.409-0.545 0.527c-0.239 0.121-0.533 0.182-0.882 0.182h-0.2v-0.85h0.159c0.236 0 0.406-0.062 0.509-0.186s0.156-0.303 0.159-0.536v-5.409zM38.724 13.336c-0.173 0-0.32-0.058-0.441-0.173s-0.182-0.253-0.182-0.414c0-0.164 0.061-0.303 0.182-0.418s0.268-0.173 0.441-0.173c0.17 0 0.315 0.058 0.436 0.173 0.124 0.115 0.186 0.255 0.186 0.418 0 0.161-0.062 0.298-0.186 0.414-0.121 0.115-0.267 0.173-0.436 0.173zM43.779 15.364l-0.895 0.155c-0.058-0.17-0.165-0.326-0.323-0.468-0.155-0.142-0.386-0.214-0.695-0.214-0.279 0-0.512 0.064-0.7 0.191-0.185 0.124-0.277 0.283-0.277 0.477 0 0.17 0.062 0.308 0.186 0.414 0.127 0.106 0.329 0.191 0.605 0.255l0.814 0.182c0.464 0.106 0.811 0.273 1.041 0.5s0.345 0.518 0.345 0.873c0 0.306-0.088 0.579-0.264 0.818-0.176 0.236-0.42 0.423-0.732 0.559-0.312 0.133-0.673 0.2-1.082 0.2-0.57 0-1.033-0.123-1.391-0.368s-0.577-0.591-0.659-1.036l0.95-0.145c0.061 0.248 0.183 0.436 0.368 0.564 0.188 0.127 0.43 0.191 0.727 0.191 0.321 0 0.579-0.068 0.773-0.205 0.197-0.136 0.295-0.302 0.295-0.495 0-0.321-0.239-0.538-0.718-0.65l-0.859-0.191c-0.476-0.109-0.827-0.28-1.055-0.514-0.224-0.236-0.336-0.533-0.336-0.891 0-0.3 0.083-0.564 0.25-0.791 0.17-0.227 0.401-0.403 0.695-0.527 0.297-0.127 0.635-0.191 1.014-0.191 0.551 0 0.983 0.12 1.295 0.359 0.315 0.239 0.524 0.556 0.627 0.95z"></path>
</symbol>
<symbol id="icon-ic-react" viewBox="0 0 47 32">
<path fill="none" stroke="#1c1d20" style="stroke: var(--color1, #1c1d20)" stroke-linejoin="miter" stroke-linecap="butt" stroke-miterlimit="4" stroke-width="0.5818" d="M16 0.291h14.545c8.676 0 15.709 7.033 15.709 15.709s-7.033 15.709-15.709 15.709h-14.545c-8.676 0-15.709-7.033-15.709-15.709s7.033-15.709 15.709-15.709z"></path>
<path d="M13.477 19.2l1.114-6.773h0.791l-1.109 6.773h-0.795zM10.409 17.386l0.136-0.791h5.132l-0.132 0.791h-5.136zM11.1 19.2l1.109-6.773h0.791l-1.109 6.773h-0.791zM10.809 15.036l0.132-0.795h5.123l-0.123 0.795h-5.132zM16.296 19.2v-5.082h0.95v0.814h0.055c0.094-0.273 0.258-0.488 0.491-0.645 0.236-0.161 0.503-0.241 0.8-0.241 0.061 0 0.132 0.003 0.214 0.009 0.085 0.003 0.153 0.008 0.205 0.014v0.945c-0.039-0.012-0.111-0.024-0.214-0.036-0.1-0.012-0.202-0.018-0.305-0.018-0.233 0-0.442 0.050-0.627 0.15-0.182 0.097-0.326 0.232-0.432 0.405-0.103 0.17-0.155 0.367-0.155 0.591v3.095h-0.982zM21.305 19.305c-0.497 0-0.927-0.108-1.291-0.323s-0.644-0.518-0.841-0.909c-0.194-0.394-0.291-0.853-0.291-1.377 0-0.521 0.095-0.98 0.286-1.377 0.194-0.397 0.465-0.706 0.814-0.927 0.351-0.224 0.764-0.336 1.236-0.336 0.288 0 0.567 0.047 0.836 0.141s0.512 0.242 0.727 0.445c0.215 0.203 0.385 0.467 0.509 0.791 0.127 0.324 0.191 0.715 0.191 1.173v0.355h-4.041v-0.741h3.532l-0.459 0.245c0-0.312-0.048-0.588-0.145-0.827s-0.242-0.426-0.436-0.559c-0.191-0.136-0.429-0.205-0.714-0.205s-0.529 0.068-0.732 0.205c-0.2 0.136-0.353 0.317-0.459 0.541s-0.159 0.47-0.159 0.736v0.505c0 0.348 0.061 0.644 0.182 0.886s0.289 0.427 0.505 0.555c0.218 0.127 0.471 0.191 0.759 0.191 0.188 0 0.358-0.027 0.509-0.082 0.155-0.055 0.288-0.136 0.4-0.245s0.197-0.244 0.255-0.405l0.936 0.177c-0.076 0.273-0.209 0.512-0.4 0.718s-0.432 0.367-0.723 0.482c-0.288 0.112-0.617 0.168-0.986 0.168zM25.46 19.309c-0.321 0-0.612-0.059-0.873-0.177-0.261-0.121-0.467-0.297-0.618-0.527s-0.227-0.511-0.227-0.841c0-0.288 0.055-0.523 0.164-0.705 0.112-0.185 0.262-0.332 0.45-0.441s0.397-0.191 0.627-0.245c0.23-0.055 0.467-0.097 0.709-0.127 0.306-0.033 0.553-0.062 0.741-0.086s0.324-0.062 0.409-0.114c0.088-0.055 0.132-0.141 0.132-0.259v-0.023c0-0.288-0.082-0.511-0.245-0.668-0.161-0.158-0.4-0.236-0.718-0.236-0.33 0-0.592 0.073-0.786 0.218-0.191 0.142-0.323 0.305-0.395 0.486l-0.932-0.214c0.112-0.309 0.274-0.558 0.486-0.745 0.215-0.191 0.461-0.33 0.736-0.418 0.279-0.088 0.57-0.132 0.873-0.132 0.203 0 0.418 0.024 0.645 0.073 0.227 0.046 0.441 0.132 0.641 0.259 0.203 0.124 0.368 0.303 0.495 0.536s0.191 0.535 0.191 0.905v3.373h-0.968v-0.695h-0.036c-0.061 0.124-0.156 0.248-0.286 0.373-0.127 0.124-0.291 0.227-0.491 0.309s-0.441 0.123-0.723 0.123zM25.673 18.518c0.276 0 0.511-0.053 0.705-0.159 0.194-0.109 0.342-0.252 0.445-0.427s0.155-0.362 0.155-0.559v-0.659c-0.036 0.033-0.105 0.065-0.204 0.095s-0.214 0.056-0.341 0.077c-0.127 0.021-0.252 0.041-0.373 0.059-0.121 0.015-0.223 0.027-0.305 0.036-0.191 0.027-0.365 0.070-0.523 0.127-0.158 0.055-0.285 0.136-0.382 0.245-0.094 0.106-0.141 0.247-0.141 0.423 0 0.245 0.091 0.43 0.273 0.555s0.412 0.186 0.691 0.186zM30.86 19.305c-0.488 0-0.909-0.112-1.264-0.336s-0.627-0.533-0.818-0.927-0.286-0.845-0.286-1.355c0-0.518 0.097-0.974 0.291-1.368 0.197-0.397 0.471-0.706 0.823-0.927 0.355-0.224 0.77-0.336 1.245-0.336 0.388 0 0.732 0.071 1.032 0.214 0.303 0.139 0.547 0.338 0.732 0.595 0.188 0.258 0.299 0.558 0.332 0.9h-0.964c-0.033-0.161-0.099-0.308-0.195-0.441-0.094-0.133-0.218-0.239-0.373-0.318s-0.338-0.118-0.55-0.118c-0.276 0-0.517 0.073-0.723 0.218-0.203 0.142-0.362 0.347-0.477 0.614s-0.173 0.582-0.173 0.945c0 0.367 0.056 0.686 0.168 0.959s0.271 0.483 0.477 0.632c0.209 0.145 0.452 0.218 0.727 0.218 0.285 0 0.527-0.079 0.727-0.236 0.203-0.158 0.333-0.373 0.391-0.645h0.964c-0.033 0.33-0.139 0.624-0.318 0.882s-0.418 0.461-0.718 0.609c-0.3 0.148-0.65 0.223-1.050 0.223zM35.824 14.118v0.795h-2.773v-0.795h2.773zM33.792 12.909h0.986v4.8c0 0.233 0.048 0.405 0.145 0.514 0.097 0.106 0.253 0.159 0.468 0.159 0.051 0 0.106-0.003 0.164-0.009 0.061-0.006 0.121-0.015 0.182-0.027l0.186 0.818c-0.1 0.033-0.209 0.059-0.327 0.077s-0.236 0.027-0.355 0.027c-0.439 0-0.791-0.123-1.055-0.368-0.264-0.248-0.395-0.579-0.395-0.991v-5z"></path>
</symbol>
</defs>
</svg>
